<svg xmlns="http://www.w3.org/2000/svg" width="32" height="40" viewBox="0 0 32 40">
  <title>corna</title>
  <g id="Isolation_Mode" data-name="Isolation Mode">
    <g id="_Group_" data-name="&lt;Group&gt;">
      <g id="_Group_2" data-name="&lt;Group&gt;">
        <path id="_Compound_Path_" data-name="&lt;Compound Path&gt;" d="M28.67721,25.04V6.53235a2.53563,2.53563,0,0,0-5.07125,0V21.74426a4.22327,4.22327,0,0,1-4.22419,4.22419,4.27188,4.27188,0,0,1-2.53563-.84336,4.23035,4.23035,0,0,1-4.24269,4.22419h-.82856V27.65887h.84521a2.53094,2.53094,0,0,0,2.53563-2.53378,2.3311,2.3311,0,0,0-.15166-.84521,2.52927,2.52927,0,0,0-2.384-1.69042H5.86027c-1.40375,0-2.53563,1.13188-2.53563,1.69042V25.04a12.67655,12.67655,0,1,0,25.35256,0Zm-6.76167-3.29576V13.294a2.5347,2.5347,0,1,0-5.0694,0v8.45024a2.5347,2.5347,0,1,0,5.0694,0Zm-6.75982,0V13.294a2.53563,2.53563,0,0,0-5.07125,0v7.605h2.519A4.28569,4.28569,0,0,1,15.15572,21.74426ZM8.3959,20.899V4.792a2.53563,2.53563,0,0,0-5.07125,0V21.69247A4.62568,4.62568,0,0,1,5.87691,20.899Z" style="fill: #231f20"/>
        <path id="_Path_" data-name="&lt;Path&gt;" d="M28.67721,24.27988V25.04a12.67655,12.67655,0,1,1-25.35256,0v-.76013c0-.55854,1.13188-1.69042,2.53563-1.69042h6.75982a2.52927,2.52927,0,0,1,2.384,1.69042,2.3311,2.3311,0,0,1,.15166.84521,2.53094,2.53094,0,0,1-2.53563,2.53378h-.84521v1.69042h.82856a4.23035,4.23035,0,0,0,4.24269-4.22419,4.27188,4.27188,0,0,0,2.53563.84336A4.22327,4.22327,0,0,0,23.606,21.74426V6.53235a2.53563,2.53563,0,0,1,5.07125,0V24.27988Z" style="fill: #231f20"/>
        <path id="_Path_2" data-name="&lt;Path&gt;" d="M21.91554,13.294v8.45024a2.5347,2.5347,0,1,1-5.0694,0V13.294a2.5347,2.5347,0,1,1,5.0694,0Z" style="fill: #231f20"/>
        <path id="_Path_3" data-name="&lt;Path&gt;" d="M15.15572,13.294v8.45024a4.28569,4.28569,0,0,0-2.55227-.84521h-2.519V13.294a2.53563,2.53563,0,0,1,5.07125,0Z" style="fill: #231f20"/>
        <path id="_Path_4" data-name="&lt;Path&gt;" d="M8.3959,4.792V20.899h-2.519a4.62568,4.62568,0,0,0-2.55227.79342V4.792a2.53563,2.53563,0,0,1,5.07125,0Z" style="fill: #231f20"/>
      </g>
    </g>
  </g>
</svg>
