<svg xmlns="http://www.w3.org/2000/svg" width="32" height="40" viewBox="0 0 32 40">
  <title>ferro</title>
  <g id="Isolation_Mode" data-name="Isolation Mode">
    <path id="_Compound_Path_" data-name="&lt;Compound Path&gt;" d="M30.605,18.51245A79.507,79.507,0,0,1,28.796,33.753c-.38085,1.55882-1.21561,2.34708-2.47329,2.34708H24.14836A2.15561,2.15561,0,0,1,24.124,31.789a.81376.81376,0,0,0,.78826-.682,76.42787,76.42787,0,0,0,1.375-12.59452A10.30884,10.30884,0,0,0,16,8.21629h-.01107A10.30793,10.30793,0,0,0,5.7127,18.51245,76.16948,76.16948,0,0,0,7.08331,31.087.812.812,0,0,0,7.876,31.789a2.15563,2.15563,0,0,1-.02657,4.3111H5.67727c-1.2599,0-2.09244-.78826-2.47329-2.34708A79.507,79.507,0,0,1,1.395,18.51245a14.605,14.605,0,1,1,29.21008,0ZM29.28758,20.368a.806.806,0,0,0-.77055-.84362.11612.11612,0,0,0-.03764-.00443.81081.81081,0,1,0,.80819.848Zm-.56684,5.73928a.80933.80933,0,0,0-.68862-.91448.69823.69823,0,0,0-.11735-.00886.80716.80716,0,0,0-.79712.69527l-.00443-.00221a.812.812,0,0,0,1.60753.23028Zm-.54691-10.63272a.81.81,0,0,0-.24578-1.581.78576.78576,0,0,0-.248.03986.80914.80914,0,1,0,.49377,1.5411ZM27.7354,31.5941a.8089.8089,0,0,0-.80819-.80819.82391.82391,0,0,0-.5757.23692.80038.80038,0,0,0-.23692.57127.8187.8187,0,0,0,.23692.57348.8433.8433,0,0,0,1.147,0A.8187.8187,0,0,0,27.7354,31.5941ZM16.77719,6.49584a.80841.80841,0,0,0-.52256-1.01633.80341.80341,0,0,0-1.01633.52256.80808.80808,0,1,0,1.53889.49377ZM5.88541,31.5941a.8025.8025,0,0,0-.23914-.57127.81025.81025,0,1,0-1.147,1.14476.84329.84329,0,0,0,1.147,0A.81145.81145,0,0,0,5.88541,31.5941ZM4.19374,26.79587a.81766.81766,0,0,0,.69084-.9189l-.00443.00221a.806.806,0,0,0-.79934-.69527.68982.68982,0,0,0-.11514.00886.80962.80962,0,1,0,.22807,1.6031ZM4.84251,14.952A.80988.80988,0,0,0,4.32,13.93343a.80341.80341,0,0,0-1.01633.52256.80842.80842,0,1,0,1.53889.496ZM3.556,21.14074a.81083.81083,0,0,0-.03764-1.62081.11612.11612,0,0,0-.03764.00443A.80907.80907,0,0,0,3.556,21.14074Z" style="fill: #231f20"/>
    <path id="_Path_" data-name="&lt;Path&gt;" d="M28.517,19.52435a.74124.74124,0,1,1-.03764-.00443A.11612.11612,0,0,1,28.517,19.52435Z" style="fill: #fff"/>
    <path id="_Path_2" data-name="&lt;Path&gt;" d="M28.03211,25.19277a.80962.80962,0,1,1-.22807,1.6031.8193.8193,0,0,1-.69084-.9189l.00443.00221a.80716.80716,0,0,1,.79712-.69527A.69823.69823,0,0,1,28.03211,25.19277Z" style="fill: #fff"/>
    <path id="_Path_3" data-name="&lt;Path&gt;" d="M28.69638,14.456A.80948.80948,0,1,1,27.68,13.93343a.78576.78576,0,0,1,.248-.03986A.80431.80431,0,0,1,28.69638,14.456Z" style="fill: #fff"/>
    <path id="_Path_4" data-name="&lt;Path&gt;" d="M27.49848,31.02283a.80986.80986,0,0,1,0,1.14476.8433.8433,0,0,1-1.147,0,.8187.8187,0,0,1-.23692-.57348.80038.80038,0,0,1,.23692-.57127.81253.81253,0,0,1,1.147,0Z" style="fill: #fff"/>
    <path id="_Path_5" data-name="&lt;Path&gt;" d="M16.25464,5.47951a.80341.80341,0,1,1-.248-.03986A.796.796,0,0,1,16.25464,5.47951Z" style="fill: #fff"/>
    <path id="_Path_6" data-name="&lt;Path&gt;" d="M5.64627,31.02283a.8025.8025,0,0,1,.23914.57127.81145.81145,0,0,1-.23914.57348.84329.84329,0,0,1-1.147,0,.81025.81025,0,0,1,1.147-1.14476Z" style="fill: #fff"/>
    <path id="_Path_7" data-name="&lt;Path&gt;" d="M4.88458,25.877a.812.812,0,1,1-.9189-.6842.68982.68982,0,0,1,.11514-.00886.806.806,0,0,1,.79934.69527Z" style="fill: #fff"/>
    <path id="_Path_8" data-name="&lt;Path&gt;" d="M4.32,13.93343a.80341.80341,0,1,1-.248-.03986A.796.796,0,0,1,4.32,13.93343Z" style="fill: #fff"/>
    <path id="_Path_9" data-name="&lt;Path&gt;" d="M4.32881,20.29269a.80907.80907,0,1,1-1.61639.07528.80418.80418,0,0,1,.76834-.84362.11612.11612,0,0,1,.03764-.00443A.81229.81229,0,0,1,4.32881,20.29269Z" style="fill: #fff"/>
  </g>
</svg>
